<mxfile host="app.diagrams.net" modified="2024-05-10T02:49:22.108Z" agent="Mozilla/5.0 (X11; Linux x86_64; rv:109.0) Gecko/20100101 Firefox/115.0" etag="qcQBQ7Y84A54xU-qQ5MT" version="24.3.1" type="github" pages="2">
  <diagram name="Current" id="Pi34j2TQSsTNF2lfRvoI">
    <mxGraphModel dx="2068" dy="960" grid="1" gridSize="10" guides="1" tooltips="1" connect="1" arrows="1" fold="1" page="1" pageScale="1" pageWidth="827" pageHeight="1169" math="0" shadow="0">
      <root>
        <mxCell id="yTUMi6zYlrmB9oeQZxO9-0" />
        <mxCell id="yTUMi6zYlrmB9oeQZxO9-1" parent="yTUMi6zYlrmB9oeQZxO9-0" />
        <mxCell id="yTUMi6zYlrmB9oeQZxO9-2" value="" style="rounded=0;html=1;jettySize=auto;orthogonalLoop=1;fontSize=11;endArrow=block;endFill=0;endSize=8;strokeWidth=1;shadow=0;labelBackgroundColor=none;edgeStyle=orthogonalEdgeStyle;" edge="1" parent="yTUMi6zYlrmB9oeQZxO9-1" source="yTUMi6zYlrmB9oeQZxO9-3" target="yTUMi6zYlrmB9oeQZxO9-6">
          <mxGeometry relative="1" as="geometry" />
        </mxCell>
        <mxCell id="yTUMi6zYlrmB9oeQZxO9-3" value="Checker" style="rounded=1;whiteSpace=wrap;html=1;fontSize=12;glass=0;strokeWidth=1;shadow=0;" vertex="1" parent="yTUMi6zYlrmB9oeQZxO9-1">
          <mxGeometry x="160" y="80" width="120" height="40" as="geometry" />
        </mxCell>
        <mxCell id="yTUMi6zYlrmB9oeQZxO9-4" value="Yes" style="rounded=0;html=1;jettySize=auto;orthogonalLoop=1;fontSize=11;endArrow=block;endFill=0;endSize=8;strokeWidth=1;shadow=0;labelBackgroundColor=none;edgeStyle=orthogonalEdgeStyle;entryX=0.5;entryY=0;entryDx=0;entryDy=0;" edge="1" parent="yTUMi6zYlrmB9oeQZxO9-1" source="yTUMi6zYlrmB9oeQZxO9-6">
          <mxGeometry y="20" relative="1" as="geometry">
            <mxPoint as="offset" />
            <mxPoint x="220" y="450" as="targetPoint" />
          </mxGeometry>
        </mxCell>
        <mxCell id="yTUMi6zYlrmB9oeQZxO9-5" value="No" style="edgeStyle=orthogonalEdgeStyle;rounded=0;html=1;jettySize=auto;orthogonalLoop=1;fontSize=11;endArrow=block;endFill=0;endSize=8;strokeWidth=1;shadow=0;labelBackgroundColor=none;" edge="1" parent="yTUMi6zYlrmB9oeQZxO9-1" source="yTUMi6zYlrmB9oeQZxO9-6" target="yTUMi6zYlrmB9oeQZxO9-8">
          <mxGeometry y="10" relative="1" as="geometry">
            <mxPoint as="offset" />
          </mxGeometry>
        </mxCell>
        <mxCell id="yTUMi6zYlrmB9oeQZxO9-6" value="Is there another implant on the host&amp;nbsp; besides this one?" style="rhombus;whiteSpace=wrap;html=1;shadow=0;fontFamily=Helvetica;fontSize=12;align=center;strokeWidth=1;spacing=6;spacingTop=-4;" vertex="1" parent="yTUMi6zYlrmB9oeQZxO9-1">
          <mxGeometry x="120" y="170" width="200" height="180" as="geometry" />
        </mxCell>
        <mxCell id="yTUMi6zYlrmB9oeQZxO9-7" value="" style="edgeStyle=orthogonalEdgeStyle;rounded=0;orthogonalLoop=1;jettySize=auto;html=1;" edge="1" parent="yTUMi6zYlrmB9oeQZxO9-1" source="yTUMi6zYlrmB9oeQZxO9-8">
          <mxGeometry relative="1" as="geometry">
            <mxPoint x="600" y="260" as="targetPoint" />
          </mxGeometry>
        </mxCell>
        <mxCell id="yTUMi6zYlrmB9oeQZxO9-8" value="Replicate" style="rounded=1;whiteSpace=wrap;html=1;fontSize=12;glass=0;strokeWidth=1;shadow=0;" vertex="1" parent="yTUMi6zYlrmB9oeQZxO9-1">
          <mxGeometry x="400" y="240" width="120" height="40" as="geometry" />
        </mxCell>
        <mxCell id="yTUMi6zYlrmB9oeQZxO9-13" value="Exit 0" style="rounded=1;whiteSpace=wrap;html=1;fontSize=12;glass=0;strokeWidth=1;shadow=0;" vertex="1" parent="yTUMi6zYlrmB9oeQZxO9-1">
          <mxGeometry x="600" y="240" width="120" height="40" as="geometry" />
        </mxCell>
        <mxCell id="yTUMi6zYlrmB9oeQZxO9-14" value="" style="edgeStyle=orthogonalEdgeStyle;rounded=0;orthogonalLoop=1;jettySize=auto;html=1;" edge="1" parent="yTUMi6zYlrmB9oeQZxO9-1" source="yTUMi6zYlrmB9oeQZxO9-15" target="yTUMi6zYlrmB9oeQZxO9-17">
          <mxGeometry relative="1" as="geometry" />
        </mxCell>
        <mxCell id="yTUMi6zYlrmB9oeQZxO9-15" value="Test revshell" style="rounded=1;whiteSpace=wrap;html=1;fontSize=12;glass=0;strokeWidth=1;shadow=0;" vertex="1" parent="yTUMi6zYlrmB9oeQZxO9-1">
          <mxGeometry x="160" y="450" width="120" height="40" as="geometry" />
        </mxCell>
        <mxCell id="yTUMi6zYlrmB9oeQZxO9-16" value="" style="edgeStyle=orthogonalEdgeStyle;rounded=0;orthogonalLoop=1;jettySize=auto;html=1;" edge="1" parent="yTUMi6zYlrmB9oeQZxO9-1" source="yTUMi6zYlrmB9oeQZxO9-17" target="yTUMi6zYlrmB9oeQZxO9-19">
          <mxGeometry relative="1" as="geometry" />
        </mxCell>
        <mxCell id="yTUMi6zYlrmB9oeQZxO9-17" value="Find other implant" style="rounded=1;whiteSpace=wrap;html=1;fontSize=12;glass=0;strokeWidth=1;shadow=0;" vertex="1" parent="yTUMi6zYlrmB9oeQZxO9-1">
          <mxGeometry x="160" y="570" width="120" height="40" as="geometry" />
        </mxCell>
        <mxCell id="yTUMi6zYlrmB9oeQZxO9-18" value="" style="edgeStyle=orthogonalEdgeStyle;rounded=0;orthogonalLoop=1;jettySize=auto;html=1;" edge="1" parent="yTUMi6zYlrmB9oeQZxO9-1" source="yTUMi6zYlrmB9oeQZxO9-19">
          <mxGeometry relative="1" as="geometry">
            <mxPoint x="220" y="790" as="targetPoint" />
          </mxGeometry>
        </mxCell>
        <mxCell id="yTUMi6zYlrmB9oeQZxO9-19" value="Wait 30 sec" style="rounded=1;whiteSpace=wrap;html=1;fontSize=12;glass=0;strokeWidth=1;shadow=0;" vertex="1" parent="yTUMi6zYlrmB9oeQZxO9-1">
          <mxGeometry x="160" y="690" width="120" height="40" as="geometry" />
        </mxCell>
        <mxCell id="yTUMi6zYlrmB9oeQZxO9-20" value="" style="edgeStyle=orthogonalEdgeStyle;rounded=0;orthogonalLoop=1;jettySize=auto;html=1;" edge="1" parent="yTUMi6zYlrmB9oeQZxO9-1" target="yTUMi6zYlrmB9oeQZxO9-25">
          <mxGeometry relative="1" as="geometry">
            <mxPoint x="320" y="880" as="sourcePoint" />
          </mxGeometry>
        </mxCell>
        <mxCell id="yTUMi6zYlrmB9oeQZxO9-21" value="" style="edgeStyle=orthogonalEdgeStyle;rounded=0;orthogonalLoop=1;jettySize=auto;html=1;" edge="1" parent="yTUMi6zYlrmB9oeQZxO9-1" source="yTUMi6zYlrmB9oeQZxO9-23" target="yTUMi6zYlrmB9oeQZxO9-28">
          <mxGeometry relative="1" as="geometry" />
        </mxCell>
        <mxCell id="yTUMi6zYlrmB9oeQZxO9-22" value="No" style="edgeLabel;html=1;align=center;verticalAlign=middle;resizable=0;points=[];" vertex="1" connectable="0" parent="yTUMi6zYlrmB9oeQZxO9-21">
          <mxGeometry y="-1" relative="1" as="geometry">
            <mxPoint y="-120" as="offset" />
          </mxGeometry>
        </mxCell>
        <mxCell id="yTUMi6zYlrmB9oeQZxO9-23" value="Is the other implant up?" style="rhombus;whiteSpace=wrap;html=1;shadow=0;fontFamily=Helvetica;fontSize=12;align=center;strokeWidth=1;spacing=6;spacingTop=-4;" vertex="1" parent="yTUMi6zYlrmB9oeQZxO9-1">
          <mxGeometry x="120" y="790" width="200" height="180" as="geometry" />
        </mxCell>
        <mxCell id="yTUMi6zYlrmB9oeQZxO9-24" value="" style="edgeStyle=orthogonalEdgeStyle;rounded=0;orthogonalLoop=1;jettySize=auto;html=1;" edge="1" parent="yTUMi6zYlrmB9oeQZxO9-1" source="yTUMi6zYlrmB9oeQZxO9-25" target="yTUMi6zYlrmB9oeQZxO9-27">
          <mxGeometry relative="1" as="geometry" />
        </mxCell>
        <mxCell id="yTUMi6zYlrmB9oeQZxO9-25" value="Spawn other implant" style="rounded=1;whiteSpace=wrap;html=1;shadow=0;strokeWidth=1;spacing=6;spacingTop=-4;" vertex="1" parent="yTUMi6zYlrmB9oeQZxO9-1">
          <mxGeometry x="430" y="860" width="140" height="40" as="geometry" />
        </mxCell>
        <mxCell id="yTUMi6zYlrmB9oeQZxO9-26" value="Yes" style="text;html=1;align=center;verticalAlign=middle;resizable=0;points=[];autosize=1;strokeColor=none;fillColor=none;" vertex="1" parent="yTUMi6zYlrmB9oeQZxO9-1">
          <mxGeometry x="341" y="858" width="40" height="30" as="geometry" />
        </mxCell>
        <mxCell id="yTUMi6zYlrmB9oeQZxO9-27" value="Exit 0" style="rounded=1;whiteSpace=wrap;html=1;shadow=0;strokeWidth=1;spacing=6;spacingTop=-4;" vertex="1" parent="yTUMi6zYlrmB9oeQZxO9-1">
          <mxGeometry x="650" y="860" width="140" height="40" as="geometry" />
        </mxCell>
        <mxCell id="yTUMi6zYlrmB9oeQZxO9-28" value="Set imp array to 0" style="rounded=1;whiteSpace=wrap;html=1;shadow=0;strokeWidth=1;spacing=6;spacingTop=-4;" vertex="1" parent="yTUMi6zYlrmB9oeQZxO9-1">
          <mxGeometry x="160" y="1010" width="120" height="60" as="geometry" />
        </mxCell>
        <mxCell id="yTUMi6zYlrmB9oeQZxO9-29" value="" style="endArrow=classic;html=1;rounded=0;exitX=0;exitY=0.5;exitDx=0;exitDy=0;entryX=0;entryY=0.5;entryDx=0;entryDy=0;" edge="1" parent="yTUMi6zYlrmB9oeQZxO9-1" source="yTUMi6zYlrmB9oeQZxO9-28" target="yTUMi6zYlrmB9oeQZxO9-3">
          <mxGeometry width="50" height="50" relative="1" as="geometry">
            <mxPoint x="80" y="1250" as="sourcePoint" />
            <mxPoint x="70" y="100" as="targetPoint" />
            <Array as="points">
              <mxPoint x="70" y="1040" />
              <mxPoint x="70" y="100" />
            </Array>
          </mxGeometry>
        </mxCell>
      </root>
    </mxGraphModel>
  </diagram>
  <diagram name="Plan" id="wxye17ZQb0CUA_vo7vfy">
    <mxGraphModel dx="1723" dy="800" grid="1" gridSize="10" guides="1" tooltips="1" connect="1" arrows="1" fold="1" page="1" pageScale="1" pageWidth="827" pageHeight="1169" math="0" shadow="0">
      <root>
        <mxCell id="6aK8ZaA68SzIjygyzm5A-0" />
        <mxCell id="6aK8ZaA68SzIjygyzm5A-1" parent="6aK8ZaA68SzIjygyzm5A-0" />
        <mxCell id="6aK8ZaA68SzIjygyzm5A-2" value="" style="rounded=0;html=1;jettySize=auto;orthogonalLoop=1;fontSize=11;endArrow=block;endFill=0;endSize=8;strokeWidth=1;shadow=0;labelBackgroundColor=none;edgeStyle=orthogonalEdgeStyle;" parent="6aK8ZaA68SzIjygyzm5A-1" source="6aK8ZaA68SzIjygyzm5A-3" target="6aK8ZaA68SzIjygyzm5A-6" edge="1">
          <mxGeometry relative="1" as="geometry" />
        </mxCell>
        <mxCell id="6aK8ZaA68SzIjygyzm5A-3" value="Checker" style="rounded=1;whiteSpace=wrap;html=1;fontSize=12;glass=0;strokeWidth=1;shadow=0;" parent="6aK8ZaA68SzIjygyzm5A-1" vertex="1">
          <mxGeometry x="160" y="80" width="120" height="40" as="geometry" />
        </mxCell>
        <mxCell id="6aK8ZaA68SzIjygyzm5A-4" value="Yes" style="rounded=0;html=1;jettySize=auto;orthogonalLoop=1;fontSize=11;endArrow=block;endFill=0;endSize=8;strokeWidth=1;shadow=0;labelBackgroundColor=none;edgeStyle=orthogonalEdgeStyle;entryX=0.5;entryY=0;entryDx=0;entryDy=0;" parent="6aK8ZaA68SzIjygyzm5A-1" source="6aK8ZaA68SzIjygyzm5A-6" target="4JbhSM3Ce3i_EvryLpxQ-1" edge="1">
          <mxGeometry y="20" relative="1" as="geometry">
            <mxPoint as="offset" />
            <mxPoint x="220" y="400" as="targetPoint" />
          </mxGeometry>
        </mxCell>
        <mxCell id="6aK8ZaA68SzIjygyzm5A-5" value="No" style="edgeStyle=orthogonalEdgeStyle;rounded=0;html=1;jettySize=auto;orthogonalLoop=1;fontSize=11;endArrow=block;endFill=0;endSize=8;strokeWidth=1;shadow=0;labelBackgroundColor=none;" parent="6aK8ZaA68SzIjygyzm5A-1" source="6aK8ZaA68SzIjygyzm5A-6" target="6aK8ZaA68SzIjygyzm5A-7" edge="1">
          <mxGeometry y="10" relative="1" as="geometry">
            <mxPoint as="offset" />
          </mxGeometry>
        </mxCell>
        <mxCell id="6aK8ZaA68SzIjygyzm5A-6" value="Is there another implant on the host&amp;nbsp; besides this one?" style="rhombus;whiteSpace=wrap;html=1;shadow=0;fontFamily=Helvetica;fontSize=12;align=center;strokeWidth=1;spacing=6;spacingTop=-4;" parent="6aK8ZaA68SzIjygyzm5A-1" vertex="1">
          <mxGeometry x="120" y="170" width="200" height="180" as="geometry" />
        </mxCell>
        <mxCell id="4JbhSM3Ce3i_EvryLpxQ-4" value="" style="edgeStyle=orthogonalEdgeStyle;rounded=0;orthogonalLoop=1;jettySize=auto;html=1;" parent="6aK8ZaA68SzIjygyzm5A-1" source="6aK8ZaA68SzIjygyzm5A-7" target="4JbhSM3Ce3i_EvryLpxQ-3" edge="1">
          <mxGeometry relative="1" as="geometry" />
        </mxCell>
        <mxCell id="6aK8ZaA68SzIjygyzm5A-7" value="Replicate" style="rounded=1;whiteSpace=wrap;html=1;fontSize=12;glass=0;strokeWidth=1;shadow=0;" parent="6aK8ZaA68SzIjygyzm5A-1" vertex="1">
          <mxGeometry x="400" y="240" width="120" height="40" as="geometry" />
        </mxCell>
        <mxCell id="4JbhSM3Ce3i_EvryLpxQ-8" value="" style="edgeStyle=orthogonalEdgeStyle;rounded=0;orthogonalLoop=1;jettySize=auto;html=1;" parent="6aK8ZaA68SzIjygyzm5A-1" source="4JbhSM3Ce3i_EvryLpxQ-1" target="4JbhSM3Ce3i_EvryLpxQ-7" edge="1">
          <mxGeometry relative="1" as="geometry" />
        </mxCell>
        <mxCell id="4JbhSM3Ce3i_EvryLpxQ-1" value="Send heartbeat" style="rounded=1;whiteSpace=wrap;html=1;fontSize=12;glass=0;strokeWidth=1;shadow=0;" parent="6aK8ZaA68SzIjygyzm5A-1" vertex="1">
          <mxGeometry x="160" y="450" width="120" height="40" as="geometry" />
        </mxCell>
        <mxCell id="4JbhSM3Ce3i_EvryLpxQ-6" value="" style="edgeStyle=orthogonalEdgeStyle;rounded=0;orthogonalLoop=1;jettySize=auto;html=1;" parent="6aK8ZaA68SzIjygyzm5A-1" source="4JbhSM3Ce3i_EvryLpxQ-3" target="4JbhSM3Ce3i_EvryLpxQ-5" edge="1">
          <mxGeometry relative="1" as="geometry" />
        </mxCell>
        <mxCell id="4JbhSM3Ce3i_EvryLpxQ-3" value="Start heartbeat" style="rounded=1;whiteSpace=wrap;html=1;fontSize=12;glass=0;strokeWidth=1;shadow=0;" parent="6aK8ZaA68SzIjygyzm5A-1" vertex="1">
          <mxGeometry x="600" y="240" width="120" height="40" as="geometry" />
        </mxCell>
        <mxCell id="4JbhSM3Ce3i_EvryLpxQ-5" value="Exit 0" style="rounded=1;whiteSpace=wrap;html=1;fontSize=12;glass=0;strokeWidth=1;shadow=0;" parent="6aK8ZaA68SzIjygyzm5A-1" vertex="1">
          <mxGeometry x="800" y="240" width="120" height="40" as="geometry" />
        </mxCell>
        <mxCell id="4JbhSM3Ce3i_EvryLpxQ-10" value="" style="edgeStyle=orthogonalEdgeStyle;rounded=0;orthogonalLoop=1;jettySize=auto;html=1;" parent="6aK8ZaA68SzIjygyzm5A-1" source="4JbhSM3Ce3i_EvryLpxQ-7" target="4JbhSM3Ce3i_EvryLpxQ-9" edge="1">
          <mxGeometry relative="1" as="geometry" />
        </mxCell>
        <mxCell id="4JbhSM3Ce3i_EvryLpxQ-7" value="Test revshell" style="rounded=1;whiteSpace=wrap;html=1;fontSize=12;glass=0;strokeWidth=1;shadow=0;" parent="6aK8ZaA68SzIjygyzm5A-1" vertex="1">
          <mxGeometry x="160" y="570" width="120" height="40" as="geometry" />
        </mxCell>
        <mxCell id="4JbhSM3Ce3i_EvryLpxQ-12" value="" style="edgeStyle=orthogonalEdgeStyle;rounded=0;orthogonalLoop=1;jettySize=auto;html=1;" parent="6aK8ZaA68SzIjygyzm5A-1" source="4JbhSM3Ce3i_EvryLpxQ-9" target="4JbhSM3Ce3i_EvryLpxQ-11" edge="1">
          <mxGeometry relative="1" as="geometry" />
        </mxCell>
        <mxCell id="4JbhSM3Ce3i_EvryLpxQ-9" value="Find other implant" style="rounded=1;whiteSpace=wrap;html=1;fontSize=12;glass=0;strokeWidth=1;shadow=0;" parent="6aK8ZaA68SzIjygyzm5A-1" vertex="1">
          <mxGeometry x="160" y="690" width="120" height="40" as="geometry" />
        </mxCell>
        <mxCell id="gZTTO6YAQneYvnaU31lQ-1" value="" style="edgeStyle=orthogonalEdgeStyle;rounded=0;orthogonalLoop=1;jettySize=auto;html=1;" edge="1" parent="6aK8ZaA68SzIjygyzm5A-1" source="4JbhSM3Ce3i_EvryLpxQ-11" target="gZTTO6YAQneYvnaU31lQ-0">
          <mxGeometry relative="1" as="geometry" />
        </mxCell>
        <mxCell id="4JbhSM3Ce3i_EvryLpxQ-11" value="Wait 30 sec" style="rounded=1;whiteSpace=wrap;html=1;fontSize=12;glass=0;strokeWidth=1;shadow=0;" parent="6aK8ZaA68SzIjygyzm5A-1" vertex="1">
          <mxGeometry x="160" y="810" width="120" height="40" as="geometry" />
        </mxCell>
        <mxCell id="gZTTO6YAQneYvnaU31lQ-5" value="" style="edgeStyle=orthogonalEdgeStyle;rounded=0;orthogonalLoop=1;jettySize=auto;html=1;" edge="1" parent="6aK8ZaA68SzIjygyzm5A-1" source="gZTTO6YAQneYvnaU31lQ-0" target="gZTTO6YAQneYvnaU31lQ-4">
          <mxGeometry relative="1" as="geometry" />
        </mxCell>
        <mxCell id="gZTTO6YAQneYvnaU31lQ-10" value="" style="edgeStyle=orthogonalEdgeStyle;rounded=0;orthogonalLoop=1;jettySize=auto;html=1;" edge="1" parent="6aK8ZaA68SzIjygyzm5A-1" source="gZTTO6YAQneYvnaU31lQ-0" target="gZTTO6YAQneYvnaU31lQ-9">
          <mxGeometry relative="1" as="geometry" />
        </mxCell>
        <mxCell id="gZTTO6YAQneYvnaU31lQ-11" value="No" style="edgeLabel;html=1;align=center;verticalAlign=middle;resizable=0;points=[];" vertex="1" connectable="0" parent="gZTTO6YAQneYvnaU31lQ-10">
          <mxGeometry y="-1" relative="1" as="geometry">
            <mxPoint as="offset" />
          </mxGeometry>
        </mxCell>
        <mxCell id="gZTTO6YAQneYvnaU31lQ-0" value="Is the other implant up?" style="rhombus;whiteSpace=wrap;html=1;shadow=0;fontFamily=Helvetica;fontSize=12;align=center;strokeWidth=1;spacing=6;spacingTop=-4;" vertex="1" parent="6aK8ZaA68SzIjygyzm5A-1">
          <mxGeometry x="120" y="910" width="200" height="180" as="geometry" />
        </mxCell>
        <mxCell id="gZTTO6YAQneYvnaU31lQ-8" value="" style="edgeStyle=orthogonalEdgeStyle;rounded=0;orthogonalLoop=1;jettySize=auto;html=1;" edge="1" parent="6aK8ZaA68SzIjygyzm5A-1" source="gZTTO6YAQneYvnaU31lQ-4" target="gZTTO6YAQneYvnaU31lQ-7">
          <mxGeometry relative="1" as="geometry" />
        </mxCell>
        <mxCell id="gZTTO6YAQneYvnaU31lQ-4" value="Spawn other implant" style="rounded=1;whiteSpace=wrap;html=1;shadow=0;strokeWidth=1;spacing=6;spacingTop=-4;" vertex="1" parent="6aK8ZaA68SzIjygyzm5A-1">
          <mxGeometry x="430" y="980" width="140" height="40" as="geometry" />
        </mxCell>
        <mxCell id="gZTTO6YAQneYvnaU31lQ-6" value="Yes" style="text;html=1;align=center;verticalAlign=middle;resizable=0;points=[];autosize=1;strokeColor=none;fillColor=none;" vertex="1" parent="6aK8ZaA68SzIjygyzm5A-1">
          <mxGeometry x="341" y="978" width="40" height="30" as="geometry" />
        </mxCell>
        <mxCell id="gZTTO6YAQneYvnaU31lQ-7" value="Exit 0" style="rounded=1;whiteSpace=wrap;html=1;shadow=0;strokeWidth=1;spacing=6;spacingTop=-4;" vertex="1" parent="6aK8ZaA68SzIjygyzm5A-1">
          <mxGeometry x="650" y="980" width="140" height="40" as="geometry" />
        </mxCell>
        <mxCell id="gZTTO6YAQneYvnaU31lQ-9" value="Set imp array to 0" style="rounded=1;whiteSpace=wrap;html=1;shadow=0;strokeWidth=1;spacing=6;spacingTop=-4;" vertex="1" parent="6aK8ZaA68SzIjygyzm5A-1">
          <mxGeometry x="160" y="1230" width="120" height="60" as="geometry" />
        </mxCell>
        <mxCell id="Eb0DqLWqSeBKiJsoqHTi-1" value="" style="endArrow=classic;html=1;rounded=0;exitX=0;exitY=0.5;exitDx=0;exitDy=0;entryX=0;entryY=0.5;entryDx=0;entryDy=0;" edge="1" parent="6aK8ZaA68SzIjygyzm5A-1" source="gZTTO6YAQneYvnaU31lQ-9" target="6aK8ZaA68SzIjygyzm5A-3">
          <mxGeometry width="50" height="50" relative="1" as="geometry">
            <mxPoint x="80" y="1250" as="sourcePoint" />
            <mxPoint x="70" y="100" as="targetPoint" />
            <Array as="points">
              <mxPoint x="70" y="1260" />
              <mxPoint x="70" y="100" />
            </Array>
          </mxGeometry>
        </mxCell>
      </root>
    </mxGraphModel>
  </diagram>
</mxfile>
